<mxfile host="app.diagrams.net" agent="Mozilla/5.0 (Windows NT 10.0; Win64; x64) AppleWebKit/537.36 (KHTML, like Gecko) Chrome/135.0.0.0 Safari/537.36" version="26.2.13">
  <diagram name="Page-1" id="Db3uLFNYWLxjRs0IxsFi">
    <mxGraphModel dx="1044" dy="1708" grid="1" gridSize="10" guides="1" tooltips="1" connect="1" arrows="1" fold="1" page="1" pageScale="1" pageWidth="850" pageHeight="1100" math="0" shadow="0">
      <root>
        <mxCell id="0" />
        <mxCell id="1" parent="0" />
        <mxCell id="4-HIXqGWywYoXH_22afx-30" style="edgeStyle=orthogonalEdgeStyle;rounded=1;orthogonalLoop=1;jettySize=auto;html=1;exitX=0.75;exitY=1;exitDx=0;exitDy=0;entryX=0;entryY=0.5;entryDx=0;entryDy=0;curved=0;" parent="1" source="4-HIXqGWywYoXH_22afx-22" target="4-HIXqGWywYoXH_22afx-26" edge="1">
          <mxGeometry relative="1" as="geometry" />
        </mxCell>
        <mxCell id="4-HIXqGWywYoXH_22afx-31" style="edgeStyle=orthogonalEdgeStyle;rounded=1;orthogonalLoop=1;jettySize=auto;html=1;exitX=0.25;exitY=1;exitDx=0;exitDy=0;entryX=0;entryY=0.5;entryDx=0;entryDy=0;curved=0;" parent="1" source="4-HIXqGWywYoXH_22afx-22" target="4-HIXqGWywYoXH_22afx-27" edge="1">
          <mxGeometry relative="1" as="geometry" />
        </mxCell>
        <mxCell id="4-HIXqGWywYoXH_22afx-22" value="" style="rounded=1;whiteSpace=wrap;html=1;fillColor=#000000;strokeWidth=3;perimeterSpacing=0;arcSize=50;rotation=-90;" parent="1" vertex="1">
          <mxGeometry x="90" y="-96" width="120" height="2" as="geometry" />
        </mxCell>
        <mxCell id="OVjrjm0DGqNcUa_zHmCY-21" style="edgeStyle=orthogonalEdgeStyle;rounded=1;orthogonalLoop=1;jettySize=auto;html=1;entryX=0;entryY=0.5;entryDx=0;entryDy=0;curved=0;" parent="1" target="OVjrjm0DGqNcUa_zHmCY-20" edge="1">
          <mxGeometry relative="1" as="geometry">
            <mxPoint x="265" y="-155" as="sourcePoint" />
          </mxGeometry>
        </mxCell>
        <mxCell id="4-HIXqGWywYoXH_22afx-26" value="Handle Command" style="rounded=1;whiteSpace=wrap;html=1;" parent="1" vertex="1">
          <mxGeometry x="200" y="-172.5" width="80" height="35" as="geometry" />
        </mxCell>
        <mxCell id="OVjrjm0DGqNcUa_zHmCY-18" style="edgeStyle=orthogonalEdgeStyle;rounded=1;orthogonalLoop=1;jettySize=auto;html=1;exitX=1;exitY=0.5;exitDx=0;exitDy=0;entryX=0;entryY=0.5;entryDx=0;entryDy=0;curved=0;" parent="1" target="OVjrjm0DGqNcUa_zHmCY-35" edge="1">
          <mxGeometry relative="1" as="geometry">
            <mxPoint x="315" y="15" as="targetPoint" />
            <mxPoint x="265" y="-43.5" as="sourcePoint" />
          </mxGeometry>
        </mxCell>
        <mxCell id="4-HIXqGWywYoXH_22afx-27" value="Handle Response" style="rounded=1;whiteSpace=wrap;html=1;" parent="1" vertex="1">
          <mxGeometry x="200" y="-61" width="80" height="35" as="geometry" />
        </mxCell>
        <mxCell id="4-HIXqGWywYoXH_22afx-99" value="" style="ellipse;whiteSpace=wrap;html=1;aspect=fixed;" parent="1" vertex="1">
          <mxGeometry x="1060" y="-112.5" width="30" height="30" as="geometry" />
        </mxCell>
        <mxCell id="4-HIXqGWywYoXH_22afx-102" value="" style="ellipse;whiteSpace=wrap;html=1;aspect=fixed;fillColor=#000000;" parent="1" vertex="1">
          <mxGeometry x="1065" y="-107.5" width="20" height="20" as="geometry" />
        </mxCell>
        <mxCell id="OVjrjm0DGqNcUa_zHmCY-17" style="edgeStyle=orthogonalEdgeStyle;rounded=0;orthogonalLoop=1;jettySize=auto;html=1;exitX=1;exitY=0.5;exitDx=0;exitDy=0;entryX=0.5;entryY=0;entryDx=0;entryDy=0;" parent="1" source="OVjrjm0DGqNcUa_zHmCY-16" target="4-HIXqGWywYoXH_22afx-22" edge="1">
          <mxGeometry relative="1" as="geometry" />
        </mxCell>
        <mxCell id="OVjrjm0DGqNcUa_zHmCY-16" value="" style="ellipse;whiteSpace=wrap;html=1;aspect=fixed;fillColor=#000000;" parent="1" vertex="1">
          <mxGeometry x="85" y="-107.5" width="25" height="25" as="geometry" />
        </mxCell>
        <mxCell id="OVjrjm0DGqNcUa_zHmCY-27" style="edgeStyle=orthogonalEdgeStyle;rounded=1;orthogonalLoop=1;jettySize=auto;html=1;exitX=0.5;exitY=1;exitDx=0;exitDy=0;entryX=0.5;entryY=0;entryDx=0;entryDy=0;curved=0;" parent="1" source="OVjrjm0DGqNcUa_zHmCY-20" target="OVjrjm0DGqNcUa_zHmCY-26" edge="1">
          <mxGeometry relative="1" as="geometry" />
        </mxCell>
        <mxCell id="ziIvzrna1iCuSmD4qURE-4" value="Yes" style="edgeLabel;html=1;align=center;verticalAlign=middle;resizable=0;points=[];" vertex="1" connectable="0" parent="OVjrjm0DGqNcUa_zHmCY-27">
          <mxGeometry x="-0.4678" y="-1" relative="1" as="geometry">
            <mxPoint as="offset" />
          </mxGeometry>
        </mxCell>
        <mxCell id="OVjrjm0DGqNcUa_zHmCY-50" style="edgeStyle=orthogonalEdgeStyle;rounded=1;orthogonalLoop=1;jettySize=auto;html=1;exitX=0.5;exitY=0;exitDx=0;exitDy=0;entryX=0;entryY=0.5;entryDx=0;entryDy=0;curved=0;" parent="1" source="OVjrjm0DGqNcUa_zHmCY-20" target="OVjrjm0DGqNcUa_zHmCY-51" edge="1">
          <mxGeometry relative="1" as="geometry">
            <mxPoint x="455" y="-250" as="targetPoint" />
          </mxGeometry>
        </mxCell>
        <mxCell id="ziIvzrna1iCuSmD4qURE-3" value="No" style="edgeLabel;html=1;align=center;verticalAlign=middle;resizable=0;points=[];" vertex="1" connectable="0" parent="OVjrjm0DGqNcUa_zHmCY-50">
          <mxGeometry x="0.1634" y="3" relative="1" as="geometry">
            <mxPoint y="3" as="offset" />
          </mxGeometry>
        </mxCell>
        <mxCell id="OVjrjm0DGqNcUa_zHmCY-20" value="" style="rhombus;whiteSpace=wrap;html=1;" parent="1" vertex="1">
          <mxGeometry x="315" y="-220" width="30" height="30" as="geometry" />
        </mxCell>
        <mxCell id="OVjrjm0DGqNcUa_zHmCY-39" style="edgeStyle=orthogonalEdgeStyle;rounded=0;orthogonalLoop=1;jettySize=auto;html=1;exitX=1;exitY=0.5;exitDx=0;exitDy=0;entryX=0;entryY=0.5;entryDx=0;entryDy=0;" parent="1" source="OVjrjm0DGqNcUa_zHmCY-22" target="OVjrjm0DGqNcUa_zHmCY-38" edge="1">
          <mxGeometry relative="1" as="geometry" />
        </mxCell>
        <mxCell id="OVjrjm0DGqNcUa_zHmCY-22" value="Start Timeout" style="rounded=1;whiteSpace=wrap;html=1;" parent="1" vertex="1">
          <mxGeometry x="435" y="-94" width="80" height="35" as="geometry" />
        </mxCell>
        <mxCell id="OVjrjm0DGqNcUa_zHmCY-23" value="Command Auth&amp;nbsp; / Join ?" style="text;html=1;align=center;verticalAlign=middle;whiteSpace=wrap;rounded=0;" parent="1" vertex="1">
          <mxGeometry x="240" y="-250" width="80" height="30" as="geometry" />
        </mxCell>
        <mxCell id="OVjrjm0DGqNcUa_zHmCY-30" style="edgeStyle=orthogonalEdgeStyle;rounded=1;orthogonalLoop=1;jettySize=auto;html=1;exitX=0.25;exitY=1;exitDx=0;exitDy=0;entryX=0;entryY=0.5;entryDx=0;entryDy=0;curved=0;" parent="1" source="OVjrjm0DGqNcUa_zHmCY-26" target="OVjrjm0DGqNcUa_zHmCY-22" edge="1">
          <mxGeometry relative="1" as="geometry" />
        </mxCell>
        <mxCell id="OVjrjm0DGqNcUa_zHmCY-32" style="edgeStyle=orthogonalEdgeStyle;rounded=1;orthogonalLoop=1;jettySize=auto;html=1;exitX=0.75;exitY=1;exitDx=0;exitDy=0;entryX=0;entryY=0.5;entryDx=0;entryDy=0;curved=0;" parent="1" source="OVjrjm0DGqNcUa_zHmCY-26" target="OVjrjm0DGqNcUa_zHmCY-31" edge="1">
          <mxGeometry relative="1" as="geometry" />
        </mxCell>
        <mxCell id="OVjrjm0DGqNcUa_zHmCY-26" value="" style="rounded=1;whiteSpace=wrap;html=1;fillColor=#000000;strokeWidth=3;perimeterSpacing=0;arcSize=50;rotation=-90;" parent="1" vertex="1">
          <mxGeometry x="315" y="-120" width="120" height="2" as="geometry" />
        </mxCell>
        <mxCell id="OVjrjm0DGqNcUa_zHmCY-63" style="edgeStyle=orthogonalEdgeStyle;rounded=0;orthogonalLoop=1;jettySize=auto;html=1;exitX=1;exitY=0.5;exitDx=0;exitDy=0;entryX=0.907;entryY=0.5;entryDx=0;entryDy=0;entryPerimeter=0;" parent="1" source="OVjrjm0DGqNcUa_zHmCY-31" target="OVjrjm0DGqNcUa_zHmCY-62" edge="1">
          <mxGeometry relative="1" as="geometry">
            <Array as="points">
              <mxPoint x="515" y="-170" />
            </Array>
          </mxGeometry>
        </mxCell>
        <mxCell id="OVjrjm0DGqNcUa_zHmCY-31" value="Send Packet" style="rounded=1;whiteSpace=wrap;html=1;" parent="1" vertex="1">
          <mxGeometry x="435" y="-180" width="80" height="35" as="geometry" />
        </mxCell>
        <mxCell id="OVjrjm0DGqNcUa_zHmCY-44" style="edgeStyle=orthogonalEdgeStyle;rounded=1;orthogonalLoop=1;jettySize=auto;html=1;exitX=0.5;exitY=0;exitDx=0;exitDy=0;entryX=0.5;entryY=0;entryDx=0;entryDy=0;curved=0;" parent="1" source="OVjrjm0DGqNcUa_zHmCY-35" target="OVjrjm0DGqNcUa_zHmCY-43" edge="1">
          <mxGeometry relative="1" as="geometry">
            <Array as="points">
              <mxPoint x="370" y="-10" />
              <mxPoint x="545" y="-10" />
            </Array>
          </mxGeometry>
        </mxCell>
        <mxCell id="ziIvzrna1iCuSmD4qURE-2" value="No" style="edgeLabel;html=1;align=center;verticalAlign=middle;resizable=0;points=[];" vertex="1" connectable="0" parent="OVjrjm0DGqNcUa_zHmCY-44">
          <mxGeometry x="-0.1883" y="1" relative="1" as="geometry">
            <mxPoint x="25" y="1" as="offset" />
          </mxGeometry>
        </mxCell>
        <mxCell id="OVjrjm0DGqNcUa_zHmCY-45" style="edgeStyle=orthogonalEdgeStyle;rounded=1;orthogonalLoop=1;jettySize=auto;html=1;exitX=0.5;exitY=1;exitDx=0;exitDy=0;entryX=0;entryY=0.5;entryDx=0;entryDy=0;curved=0;" parent="1" source="OVjrjm0DGqNcUa_zHmCY-35" target="OVjrjm0DGqNcUa_zHmCY-41" edge="1">
          <mxGeometry relative="1" as="geometry" />
        </mxCell>
        <mxCell id="ziIvzrna1iCuSmD4qURE-1" value="Yes" style="edgeLabel;html=1;align=center;verticalAlign=middle;resizable=0;points=[];" vertex="1" connectable="0" parent="OVjrjm0DGqNcUa_zHmCY-45">
          <mxGeometry x="-0.2768" y="3" relative="1" as="geometry">
            <mxPoint x="18" y="3" as="offset" />
          </mxGeometry>
        </mxCell>
        <mxCell id="OVjrjm0DGqNcUa_zHmCY-35" value="" style="rhombus;whiteSpace=wrap;html=1;" parent="1" vertex="1">
          <mxGeometry x="355" y="20" width="30" height="30" as="geometry" />
        </mxCell>
        <mxCell id="OVjrjm0DGqNcUa_zHmCY-36" value="Response ReplyOk/Nok ?" style="text;html=1;align=center;verticalAlign=middle;whiteSpace=wrap;rounded=0;" parent="1" vertex="1">
          <mxGeometry x="265" y="50" width="90" height="30" as="geometry" />
        </mxCell>
        <mxCell id="OVjrjm0DGqNcUa_zHmCY-54" style="edgeStyle=orthogonalEdgeStyle;rounded=1;orthogonalLoop=1;jettySize=auto;html=1;exitX=0.5;exitY=0;exitDx=0;exitDy=0;entryX=0;entryY=0.5;entryDx=0;entryDy=0;curved=0;" parent="1" source="OVjrjm0DGqNcUa_zHmCY-38" target="OVjrjm0DGqNcUa_zHmCY-56" edge="1">
          <mxGeometry relative="1" as="geometry">
            <mxPoint x="610" y="-150" as="targetPoint" />
          </mxGeometry>
        </mxCell>
        <mxCell id="OVjrjm0DGqNcUa_zHmCY-55" value="Timed out" style="edgeLabel;html=1;align=center;verticalAlign=middle;resizable=0;points=[];" parent="OVjrjm0DGqNcUa_zHmCY-54" vertex="1" connectable="0">
          <mxGeometry x="-0.1464" y="-2" relative="1" as="geometry">
            <mxPoint x="-2" y="20" as="offset" />
          </mxGeometry>
        </mxCell>
        <mxCell id="OVjrjm0DGqNcUa_zHmCY-38" value="" style="rhombus;whiteSpace=wrap;html=1;" parent="1" vertex="1">
          <mxGeometry x="565" y="-91" width="30" height="30" as="geometry" />
        </mxCell>
        <mxCell id="OVjrjm0DGqNcUa_zHmCY-46" style="edgeStyle=orthogonalEdgeStyle;rounded=1;orthogonalLoop=1;jettySize=auto;html=1;exitX=1;exitY=0.5;exitDx=0;exitDy=0;entryX=0.5;entryY=1;entryDx=0;entryDy=0;curved=0;" parent="1" source="OVjrjm0DGqNcUa_zHmCY-41" target="OVjrjm0DGqNcUa_zHmCY-43" edge="1">
          <mxGeometry relative="1" as="geometry" />
        </mxCell>
        <mxCell id="OVjrjm0DGqNcUa_zHmCY-41" value="Send signal to end timeout" style="rounded=1;whiteSpace=wrap;html=1;" parent="1" vertex="1">
          <mxGeometry x="425" y="60" width="80" height="35" as="geometry" />
        </mxCell>
        <mxCell id="OVjrjm0DGqNcUa_zHmCY-76" style="edgeStyle=orthogonalEdgeStyle;rounded=1;orthogonalLoop=1;jettySize=auto;html=1;exitX=1;exitY=0.5;exitDx=0;exitDy=0;entryX=0.25;entryY=0;entryDx=0;entryDy=0;curved=0;" parent="1" source="OVjrjm0DGqNcUa_zHmCY-42" target="OVjrjm0DGqNcUa_zHmCY-78" edge="1">
          <mxGeometry relative="1" as="geometry">
            <mxPoint x="960" y="-50" as="targetPoint" />
            <Array as="points">
              <mxPoint x="885" y="35" />
              <mxPoint x="885" y="-67" />
            </Array>
          </mxGeometry>
        </mxCell>
        <mxCell id="OVjrjm0DGqNcUa_zHmCY-42" value="Process by FSM" style="rounded=1;whiteSpace=wrap;html=1;" parent="1" vertex="1">
          <mxGeometry x="690" y="17.5" width="80" height="35" as="geometry" />
        </mxCell>
        <mxCell id="OVjrjm0DGqNcUa_zHmCY-48" style="edgeStyle=orthogonalEdgeStyle;rounded=0;orthogonalLoop=1;jettySize=auto;html=1;exitX=1;exitY=0.5;exitDx=0;exitDy=0;entryX=0;entryY=0.5;entryDx=0;entryDy=0;" parent="1" source="OVjrjm0DGqNcUa_zHmCY-43" target="OVjrjm0DGqNcUa_zHmCY-42" edge="1">
          <mxGeometry relative="1" as="geometry">
            <mxPoint x="580" y="35" as="targetPoint" />
          </mxGeometry>
        </mxCell>
        <mxCell id="OVjrjm0DGqNcUa_zHmCY-43" value="" style="rhombus;whiteSpace=wrap;html=1;" parent="1" vertex="1">
          <mxGeometry x="530" y="20" width="30" height="30" as="geometry" />
        </mxCell>
        <mxCell id="OVjrjm0DGqNcUa_zHmCY-75" style="edgeStyle=orthogonalEdgeStyle;rounded=1;orthogonalLoop=1;jettySize=auto;html=1;exitX=1;exitY=0.5;exitDx=0;exitDy=0;entryX=0.5;entryY=0;entryDx=0;entryDy=0;curved=0;" parent="1" source="OVjrjm0DGqNcUa_zHmCY-51" target="OVjrjm0DGqNcUa_zHmCY-73" edge="1">
          <mxGeometry relative="1" as="geometry" />
        </mxCell>
        <mxCell id="OVjrjm0DGqNcUa_zHmCY-51" value="Send Packet" style="rounded=1;whiteSpace=wrap;html=1;" parent="1" vertex="1">
          <mxGeometry x="530" y="-300" width="80" height="35" as="geometry" />
        </mxCell>
        <mxCell id="OVjrjm0DGqNcUa_zHmCY-66" style="edgeStyle=orthogonalEdgeStyle;rounded=1;orthogonalLoop=1;jettySize=auto;html=1;exitX=1;exitY=0.5;exitDx=0;exitDy=0;entryX=0.5;entryY=0;entryDx=0;entryDy=0;curved=0;" parent="1" source="OVjrjm0DGqNcUa_zHmCY-56" target="OVjrjm0DGqNcUa_zHmCY-64" edge="1">
          <mxGeometry relative="1" as="geometry" />
        </mxCell>
        <mxCell id="OVjrjm0DGqNcUa_zHmCY-56" value="Send signal to FSM" style="rounded=1;whiteSpace=wrap;html=1;" parent="1" vertex="1">
          <mxGeometry x="630" y="-155" width="80" height="35" as="geometry" />
        </mxCell>
        <mxCell id="OVjrjm0DGqNcUa_zHmCY-60" value="" style="edgeStyle=orthogonalEdgeStyle;rounded=1;orthogonalLoop=1;jettySize=auto;html=1;exitX=0.5;exitY=1;exitDx=0;exitDy=0;entryX=0;entryY=0.5;entryDx=0;entryDy=0;curved=0;" parent="1" source="OVjrjm0DGqNcUa_zHmCY-38" target="OVjrjm0DGqNcUa_zHmCY-59" edge="1">
          <mxGeometry relative="1" as="geometry">
            <mxPoint x="680" y="-10" as="targetPoint" />
            <mxPoint x="580" y="-61" as="sourcePoint" />
          </mxGeometry>
        </mxCell>
        <mxCell id="OVjrjm0DGqNcUa_zHmCY-61" value="Received signal" style="edgeLabel;html=1;align=center;verticalAlign=middle;resizable=0;points=[];" parent="OVjrjm0DGqNcUa_zHmCY-60" vertex="1" connectable="0">
          <mxGeometry x="-0.1265" y="-4" relative="1" as="geometry">
            <mxPoint x="-12" y="-21" as="offset" />
          </mxGeometry>
        </mxCell>
        <mxCell id="OVjrjm0DGqNcUa_zHmCY-67" style="edgeStyle=orthogonalEdgeStyle;rounded=1;orthogonalLoop=1;jettySize=auto;html=1;exitX=1;exitY=0.5;exitDx=0;exitDy=0;entryX=0.5;entryY=1;entryDx=0;entryDy=0;curved=0;" parent="1" source="OVjrjm0DGqNcUa_zHmCY-59" target="OVjrjm0DGqNcUa_zHmCY-64" edge="1">
          <mxGeometry relative="1" as="geometry" />
        </mxCell>
        <mxCell id="OVjrjm0DGqNcUa_zHmCY-59" value="End Timeout" style="rounded=1;whiteSpace=wrap;html=1;" parent="1" vertex="1">
          <mxGeometry x="630" y="-45" width="80" height="35" as="geometry" />
        </mxCell>
        <mxCell id="OVjrjm0DGqNcUa_zHmCY-74" style="edgeStyle=orthogonalEdgeStyle;rounded=1;orthogonalLoop=1;jettySize=auto;html=1;exitX=0.5;exitY=1;exitDx=0;exitDy=0;entryX=0;entryY=0.5;entryDx=0;entryDy=0;curved=0;" parent="1" source="OVjrjm0DGqNcUa_zHmCY-62" target="OVjrjm0DGqNcUa_zHmCY-73" edge="1">
          <mxGeometry relative="1" as="geometry" />
        </mxCell>
        <mxCell id="OVjrjm0DGqNcUa_zHmCY-62" value="" style="rounded=1;whiteSpace=wrap;html=1;fillColor=#000000;strokeWidth=3;perimeterSpacing=0;arcSize=50;rotation=-90;" parent="1" vertex="1">
          <mxGeometry x="760" y="-122" width="120" height="2" as="geometry" />
        </mxCell>
        <mxCell id="OVjrjm0DGqNcUa_zHmCY-64" value="" style="rhombus;whiteSpace=wrap;html=1;" parent="1" vertex="1">
          <mxGeometry x="730" y="-91.5" width="30" height="30" as="geometry" />
        </mxCell>
        <mxCell id="OVjrjm0DGqNcUa_zHmCY-72" style="edgeStyle=orthogonalEdgeStyle;rounded=0;orthogonalLoop=1;jettySize=auto;html=1;exitX=1;exitY=0.5;exitDx=0;exitDy=0;" parent="1" source="OVjrjm0DGqNcUa_zHmCY-64" edge="1">
          <mxGeometry relative="1" as="geometry">
            <mxPoint x="820" y="-77" as="targetPoint" />
          </mxGeometry>
        </mxCell>
        <mxCell id="OVjrjm0DGqNcUa_zHmCY-73" value="" style="rhombus;whiteSpace=wrap;html=1;" parent="1" vertex="1">
          <mxGeometry x="890" y="-152" width="30" height="30" as="geometry" />
        </mxCell>
        <mxCell id="OVjrjm0DGqNcUa_zHmCY-80" style="edgeStyle=orthogonalEdgeStyle;rounded=0;orthogonalLoop=1;jettySize=auto;html=1;exitX=0.5;exitY=1;exitDx=0;exitDy=0;entryX=0;entryY=0.5;entryDx=0;entryDy=0;" parent="1" source="OVjrjm0DGqNcUa_zHmCY-78" target="4-HIXqGWywYoXH_22afx-99" edge="1">
          <mxGeometry relative="1" as="geometry" />
        </mxCell>
        <mxCell id="OVjrjm0DGqNcUa_zHmCY-78" value="" style="rounded=1;whiteSpace=wrap;html=1;fillColor=#000000;strokeWidth=3;perimeterSpacing=0;arcSize=50;rotation=-90;" parent="1" vertex="1">
          <mxGeometry x="940" y="-98" width="120" height="2" as="geometry" />
        </mxCell>
        <mxCell id="OVjrjm0DGqNcUa_zHmCY-79" style="edgeStyle=orthogonalEdgeStyle;rounded=0;orthogonalLoop=1;jettySize=auto;html=1;exitX=1;exitY=0.5;exitDx=0;exitDy=0;entryX=0.833;entryY=0.5;entryDx=0;entryDy=0;entryPerimeter=0;" parent="1" source="OVjrjm0DGqNcUa_zHmCY-73" target="OVjrjm0DGqNcUa_zHmCY-78" edge="1">
          <mxGeometry relative="1" as="geometry" />
        </mxCell>
      </root>
    </mxGraphModel>
  </diagram>
</mxfile>
